#!OML:ASF F:\VICON\USERDATA\INSTALL\rory3\rory3.ASF
:FULLY-SPECIFIED
:DEGREES
52
root 0.33082161640567753 17.583932910030192 28.33807057488628 0.8641913720438188 2.0248494015954837 2.6544099341582856
lfemur 8.094495968975963 -1.9478540929114438 -30.08301776832287
ltibia 22.767612069482425
lfoot -19.99603315952792 0.45362266794563544
ltoes -2.449340011505952
rfemur -42.51936053180461 -0.7949737158991761 18.13772009074831
rtibia 50.36271324767719
rfoot -2.526134599199723 -17.50874086744888
rtoes -1.9903068171867089
lowerback 12.657988676521144 -0.6512941978552562 -4.609468835127996
upperback 0.07580513973503555 -1.415288626121268 0.5742475313296624
thorax -7.173980215010904 -0.5188680861516037 3.8040843159708846
lowerneck -18.60377022272587 -2.787904366381161 -2.8413454453363762
upperneck 16.181191271959985 -3.704001198093004 2.931395931528979
head 8.246896513900236 -1.581821482541686 0.9519769962475738
lclavicle -2.8281814326274005e-15 2.8704305368674787e-16
lhumerus -25.641570263780316 -14.025826886118704 89.7813734621435
lradius 69.12983738181345
lwrist 21.281006148357697
lhand -26.166714722293857 13.589258353905572
lfingers 7.125019999999999
lthumb 0.38469707423197647 43.569854416905166
rclavicle -2.8281814326274005e-15 2.8704305368674787e-16
rhumerus -44.40311122034784 -6.441169447313873 -88.66870755460353
rradius 66.95412535988126
rwrist -3.1014501685901363
rhand -16.704331496167075 31.29995791315566
rfingers 7.125019999999999
rthumb 9.520425992850774 1.573935466197758
53
root 0.2617837825329327 17.43491419894328 30.146675373917425 1.9075810336091548 3.1793504802971775 3.1059652484599343
lfemur 14.332993516689577 -1.8913138975413222 -30.160062147513436
ltibia 17.78831458187019
lfoot -20.212327904426814 -0.4897710069956176
ltoes -6.346243662682613
rfemur -41.87921547584544 2.388521901967476 16.760280511081575
rtibia 32.654213552119344
rfoot -2.871493847632181 -20.010286332762504
rtoes -4.90978651146105
lowerback 11.923188742073934 -1.0819306325923659 -5.417909324011812
upperback -0.11074861403050648 -2.0807438379978267 0.6896313352319392
thorax -6.931154533875323 -0.8143163414070169 4.570312370132517
lowerneck -18.7141701046284 -2.7826577411996656 -2.926525108444345
upperneck 15.972873711199 -3.7134731391028315 3.080271975033333
head 8.196946975100209 -1.5657855919967434 1.0095362276892441
lclavicle -2.648647751552471e-15 4.1233885197131644e-16
lhumerus -21.352222603640527 -15.04276438146358 89.24458370029623
lradius 71.8265034505805
lwrist 22.239800001369993
lhand -26.471765477552506 13.159055225286966
lfingers 7.125019999999999
lthumb 0.0900831251231452 43.13487032249339
rclavicle -2.648647751552471e-15 4.1233885197131644e-16
rhumerus -45.93933267154411 -7.335890874455444 -87.85140714165733
rradius 66.15750168494868
rwrist -2.4090899546207263
rhand -16.58772897317152 31.583342788279346
rfingers 7.125019999999999
rthumb 9.6329484480577 1.8519874139737897
54
root 0.16973554372659735 17.25137649967902 31.525439654097823 2.402327979937433 3.8919035648753475 3.0137374463401776
lfemur 18.765564755836444 -2.802368186724622 -29.801064479307172
ltibia 16.261933198338408
lfoot -19.308100279005213 -2.0951707170518956
ltoes -12.16051462906106
rfemur -41.03050780630385 4.027094953057115 16.757493941776122
rtibia 24.45517195291895
rfoot -2.7305154525397968 -18.468907310778107
rtoes -7.647056113716495
lowerback 11.49771441383479 -1.3883595277402332 -5.609040024699702
upperback -0.19578950786391927 -2.483838057631535 0.9459637480075881
thorax -6.774878420814573 -1.0022666844162078 4.979703135595785
lowerneck -18.921122369944243 -2.748775557273024 -2.961940831566449
upperneck 15.927693598564705 -3.6628698586295023 3.0226233612183417
head 8.198370671546682 -1.5366024397333458 0.9961501415145327
lclavicle -2.8070000033155797e-15 3.0145031046732785e-16
lhumerus -19.02956118717935 -15.241753717343435 88.92473710723927
lradius 73.71185762596717
lwrist 22.735456704642168
lhand -27.137052845051862 11.880967979117678
lfingers 7.125019999999999
lthumb -0.5523925043892179 41.85091087254626
rclavicle -2.8070000033155797e-15 3.0145031046732785e-16
rhumerus -47.449062231885 -9.015427780602785 -86.57797482082253
rradius 64.86884569281423
rwrist -1.1968305995193842
rhand -16.779648537087283 31.6063289953844
rfingers 7.125019999999999
rthumb 9.447751018713834 1.8468397981546065
55
root 0.07905891280292916 17.13780032715926 32.792451469044224 2.3413312836650193 4.153179459127046 2.42718194404778
lfemur 21.45518889264084 -4.1747239213572005 -28.85045156464421
ltibia 19.581872570813587
lfoot -15.711967976750783 -4.285949545429777
ltoes -18.177897204276093
rfemur -40.2186699923976 3.899733248008661 18.324845670300583
rtibia 26.515400716515536
rfoot -0.6956390184719021 -13.534591172437153
rtoes -7.549163606859359
lowerback 11.407397493907673 -1.528513222124995 -5.037712454781757
upperback -0.204247579869955 -2.5771274401755435 1.3868795235269071
thorax -6.719631272362799 -1.0588337138432686 5.111232274758881
lowerneck -19.094305393799807 -2.6057047713697394 -2.9063074992625557
upperneck 16.133827424524235 -3.4145148316812857 2.7117547255176264
head 8.267337520096595 -1.4466838958666504 0.9173974402326501
lclavicle -2.5280332570226634e-15 4.980693932998564e-16
lhumerus -18.53583444008049 -14.384460634544647 89.040750816753
lradius 74.98183976265484
lwrist 22.93785866492875
lhand -27.86683886193702 10.71334661922151
lfingers 7.125019999999999
lthumb -1.257156166579463 40.6779549897514
rclavicle -2.5280332570226634e-15 4.980693932998564e-16
rhumerus -48.91457836483312 -11.050158697959695 -84.86290370176798
rradius 63.376691376023615
rwrist 0.47776312800159326
rhand -17.041701196198105 31.483018431823165
rfingers 7.125019999999999
rthumb 9.194886057527428 1.7038766498534388
56
root -0.0033362051272926713 17.165968524748507 33.837439070004564 1.9288149855934296 4.064780790712686 1.3455630935316791
lfemur 21.982089301620768 -5.235557762180033 -27.08020726279243
ltibia 27.097610205565015
lfoot -7.941502295104561 -7.360881665437588
ltoes -22.347279755321047
rfemur -39.12142390807512 3.112025915628174 20.94106851524971
rtibia 33.613856836923006
rfoot 2.294935456189392 -7.932769684871549
rtoes -3.4803063443853164
lowerback 11.442849750131927 -1.5790318126013796 -3.852454999397642
upperback -0.23093009021542407 -2.4851148375559693 1.9919567869340653
thorax -6.739063182087665 -1.0366047539862613 5.0345926073422
lowerneck -19.021121763501707 -2.3270988800563623 -2.7975871065868114
upperneck 16.57032391013548 -2.945315421071455 2.2592267645742483
head 8.370429531031261 -1.283599291196289 0.8171499675410798
lclavicle -1.9206522043983754e-15 9.252081126841016e-16
lhumerus -19.733427679047505 -12.759156278499166 89.47932359448372
lradius 75.93687986624892
lwrist 22.97380209784062
lhand -28.22530093585676 10.40004835984875
lfingers 7.125019999999999
lthumb -1.603338651849082 40.3601131874599
rclavicle -1.9206522043983754e-15 9.252081126841016e-16
rhumerus -50.41799738099449 -13.126083878467007 -82.9159853410668
rradius 61.88381738075918
rwrist 2.370644106544774
rhand -17.100408944873465 31.360467799992993
rfingers 7.125019999999999
rthumb 9.138244089292868 1.574339238426603
